<mxfile host="app.diagrams.net" agent="Mozilla/5.0 (Macintosh; Intel Mac OS X 10_15_7) AppleWebKit/537.36 (KHTML, like Gecko) Chrome/127.0.0.0 Safari/537.36" version="24.7.8">
  <diagram name="Page-1" id="v7bY_9NJ5AnYkwaDWGM3">
    <mxGraphModel dx="1764" dy="997" grid="1" gridSize="10" guides="1" tooltips="1" connect="1" arrows="1" fold="1" page="1" pageScale="1" pageWidth="850" pageHeight="1100" math="0" shadow="0">
      <root>
        <mxCell id="0" />
        <mxCell id="1" parent="0" />
        <mxCell id="vkkkhBL2sCb2KMRIvEti-11" value="ECC Check Bit Generator" style="rounded=0;whiteSpace=wrap;html=1;fillColor=#dae8fc;strokeColor=#6c8ebf;fontStyle=1;fontSize=14;" vertex="1" parent="1">
          <mxGeometry x="300" y="430" width="120" height="60" as="geometry" />
        </mxCell>
        <mxCell id="vkkkhBL2sCb2KMRIvEti-12" value="Memory Data Array" style="rounded=0;whiteSpace=wrap;html=1;fillColor=#ffe6cc;strokeColor=#d79b00;fontSize=14;fontStyle=1" vertex="1" parent="1">
          <mxGeometry x="530" y="295" width="120" height="120" as="geometry" />
        </mxCell>
        <mxCell id="vkkkhBL2sCb2KMRIvEti-13" value="ECC Check Bit Array" style="rounded=0;whiteSpace=wrap;html=1;fillColor=#d5e8d4;strokeColor=#82b366;fontSize=14;fontStyle=1" vertex="1" parent="1">
          <mxGeometry x="530" y="430" width="120" height="60" as="geometry" />
        </mxCell>
        <mxCell id="vkkkhBL2sCb2KMRIvEti-17" value="&lt;span&gt;&lt;font style=&quot;font-size: 17px;&quot;&gt;64 bits&lt;/font&gt;&lt;/span&gt;" style="text;html=1;align=center;verticalAlign=middle;whiteSpace=wrap;rounded=0;fontStyle=0" vertex="1" parent="1">
          <mxGeometry x="-30" y="425" width="70" height="30" as="geometry" />
        </mxCell>
        <mxCell id="vkkkhBL2sCb2KMRIvEti-18" value="&lt;span&gt;&lt;font style=&quot;font-size: 17px;&quot;&gt;64/128 bits&lt;/font&gt;&lt;/span&gt;" style="text;html=1;align=center;verticalAlign=middle;whiteSpace=wrap;rounded=0;fontStyle=0" vertex="1" parent="1">
          <mxGeometry x="420" y="354" width="90" height="30" as="geometry" />
        </mxCell>
        <mxCell id="vkkkhBL2sCb2KMRIvEti-19" value="&lt;span&gt;&lt;font style=&quot;font-size: 17px;&quot;&gt;8 bits&lt;/font&gt;&lt;/span&gt;" style="text;html=1;align=center;verticalAlign=middle;whiteSpace=wrap;rounded=0;fontStyle=0" vertex="1" parent="1">
          <mxGeometry x="430" y="446" width="70" height="30" as="geometry" />
        </mxCell>
        <mxCell id="vkkkhBL2sCb2KMRIvEti-22" value="" style="endArrow=classic;html=1;rounded=0;strokeWidth=4;" edge="1" parent="1">
          <mxGeometry width="50" height="50" relative="1" as="geometry">
            <mxPoint x="40" y="440" as="sourcePoint" />
            <mxPoint x="80" y="440" as="targetPoint" />
          </mxGeometry>
        </mxCell>
        <mxCell id="vkkkhBL2sCb2KMRIvEti-23" value="" style="endArrow=none;html=1;rounded=0;strokeWidth=4;" edge="1" parent="1">
          <mxGeometry width="50" height="50" relative="1" as="geometry">
            <mxPoint x="40" y="440" as="sourcePoint" />
            <mxPoint x="40" y="330" as="targetPoint" />
          </mxGeometry>
        </mxCell>
        <mxCell id="vkkkhBL2sCb2KMRIvEti-24" value="" style="endArrow=none;html=1;rounded=0;strokeWidth=4;exitX=-0.008;exitY=0.067;exitDx=0;exitDy=0;exitPerimeter=0;" edge="1" parent="1">
          <mxGeometry width="50" height="50" relative="1" as="geometry">
            <mxPoint x="529.04" y="329.99999999999994" as="sourcePoint" />
            <mxPoint x="40" y="331.96" as="targetPoint" />
          </mxGeometry>
        </mxCell>
        <mxCell id="vkkkhBL2sCb2KMRIvEti-25" value="&lt;span&gt;&lt;font style=&quot;font-size: 17px;&quot;&gt;64 bits&lt;/font&gt;&lt;/span&gt;" style="text;html=1;align=center;verticalAlign=middle;whiteSpace=wrap;rounded=0;fontStyle=0" vertex="1" parent="1">
          <mxGeometry x="-30" y="465" width="70" height="30" as="geometry" />
        </mxCell>
        <mxCell id="vkkkhBL2sCb2KMRIvEti-26" value="" style="endArrow=classic;html=1;rounded=0;strokeWidth=4;" edge="1" parent="1">
          <mxGeometry width="50" height="50" relative="1" as="geometry">
            <mxPoint x="40" y="479.71" as="sourcePoint" />
            <mxPoint x="80" y="479.71" as="targetPoint" />
          </mxGeometry>
        </mxCell>
        <mxCell id="vkkkhBL2sCb2KMRIvEti-27" value="" style="html=1;verticalLabelPosition=bottom;align=center;labelBackgroundColor=#ffffff;verticalAlign=top;strokeWidth=2;strokeColor=#0c0d0d;shadow=0;dashed=0;shape=mxgraph.ios7.icons.add;" vertex="1" parent="1">
          <mxGeometry x="80" y="440" width="40" height="40" as="geometry" />
        </mxCell>
        <mxCell id="vkkkhBL2sCb2KMRIvEti-28" value="&lt;span&gt;&lt;font style=&quot;font-size: 17px;&quot;&gt;128 bits&lt;/font&gt;&lt;/span&gt;" style="text;html=1;align=center;verticalAlign=middle;whiteSpace=wrap;rounded=0;fontStyle=0" vertex="1" parent="1">
          <mxGeometry x="120" y="434" width="70" height="30" as="geometry" />
        </mxCell>
        <mxCell id="vkkkhBL2sCb2KMRIvEti-29" value="" style="endArrow=classic;html=1;rounded=0;strokeWidth=4;entryX=0;entryY=0.5;entryDx=0;entryDy=0;" edge="1" parent="1" target="vkkkhBL2sCb2KMRIvEti-11">
          <mxGeometry width="50" height="50" relative="1" as="geometry">
            <mxPoint x="120" y="459.71" as="sourcePoint" />
            <mxPoint x="160" y="459.71" as="targetPoint" />
          </mxGeometry>
        </mxCell>
        <mxCell id="vkkkhBL2sCb2KMRIvEti-30" value="" style="endArrow=classic;html=1;rounded=0;strokeWidth=4;entryX=0;entryY=0.5;entryDx=0;entryDy=0;exitX=1;exitY=0.5;exitDx=0;exitDy=0;" edge="1" parent="1">
          <mxGeometry width="50" height="50" relative="1" as="geometry">
            <mxPoint x="420" y="472" as="sourcePoint" />
            <mxPoint x="530" y="472" as="targetPoint" />
          </mxGeometry>
        </mxCell>
        <mxCell id="vkkkhBL2sCb2KMRIvEti-31" value="" style="endArrow=classic;html=1;rounded=0;strokeWidth=4;entryX=0;entryY=0.5;entryDx=0;entryDy=0;" edge="1" parent="1">
          <mxGeometry width="50" height="50" relative="1" as="geometry">
            <mxPoint x="240" y="380" as="sourcePoint" />
            <mxPoint x="530" y="380" as="targetPoint" />
          </mxGeometry>
        </mxCell>
        <mxCell id="vkkkhBL2sCb2KMRIvEti-32" value="" style="endArrow=none;html=1;rounded=0;strokeWidth=4;" edge="1" parent="1">
          <mxGeometry width="50" height="50" relative="1" as="geometry">
            <mxPoint x="240" y="460" as="sourcePoint" />
            <mxPoint x="240" y="380" as="targetPoint" />
          </mxGeometry>
        </mxCell>
        <mxCell id="vkkkhBL2sCb2KMRIvEti-33" value="ECC Check Bit Generator" style="rounded=0;whiteSpace=wrap;html=1;fillColor=#dae8fc;strokeColor=#6c8ebf;fontStyle=1;fontSize=14;" vertex="1" parent="1">
          <mxGeometry x="300" y="205" width="120" height="60" as="geometry" />
        </mxCell>
        <mxCell id="vkkkhBL2sCb2KMRIvEti-34" value="Memory Data Array" style="rounded=0;whiteSpace=wrap;html=1;fillColor=#ffe6cc;strokeColor=#d79b00;fontSize=14;fontStyle=1" vertex="1" parent="1">
          <mxGeometry x="530" y="70" width="120" height="120" as="geometry" />
        </mxCell>
        <mxCell id="vkkkhBL2sCb2KMRIvEti-35" value="ECC Check Bit Array" style="rounded=0;whiteSpace=wrap;html=1;fillColor=#d5e8d4;strokeColor=#82b366;fontSize=14;fontStyle=1" vertex="1" parent="1">
          <mxGeometry x="530" y="205" width="120" height="60" as="geometry" />
        </mxCell>
        <mxCell id="vkkkhBL2sCb2KMRIvEti-37" value="&lt;span&gt;&lt;font style=&quot;font-size: 17px;&quot;&gt;128 bits&lt;/font&gt;&lt;/span&gt;" style="text;html=1;align=center;verticalAlign=middle;whiteSpace=wrap;rounded=0;fontStyle=0" vertex="1" parent="1">
          <mxGeometry x="420" y="100" width="90" height="30" as="geometry" />
        </mxCell>
        <mxCell id="vkkkhBL2sCb2KMRIvEti-38" value="&lt;span&gt;&lt;font style=&quot;font-size: 17px;&quot;&gt;8 bits&lt;/font&gt;&lt;/span&gt;" style="text;html=1;align=center;verticalAlign=middle;whiteSpace=wrap;rounded=0;fontStyle=0" vertex="1" parent="1">
          <mxGeometry x="430" y="209" width="70" height="30" as="geometry" />
        </mxCell>
        <mxCell id="vkkkhBL2sCb2KMRIvEti-45" value="&lt;span&gt;&lt;font style=&quot;font-size: 17px;&quot;&gt;128 bits&lt;/font&gt;&lt;/span&gt;" style="text;html=1;align=center;verticalAlign=middle;whiteSpace=wrap;rounded=0;fontStyle=0" vertex="1" parent="1">
          <mxGeometry x="120" y="207" width="70" height="30" as="geometry" />
        </mxCell>
        <mxCell id="vkkkhBL2sCb2KMRIvEti-46" value="" style="endArrow=classic;html=1;rounded=0;strokeWidth=4;entryX=0;entryY=0.5;entryDx=0;entryDy=0;" edge="1" parent="1" target="vkkkhBL2sCb2KMRIvEti-33">
          <mxGeometry width="50" height="50" relative="1" as="geometry">
            <mxPoint x="120" y="234.70999999999998" as="sourcePoint" />
            <mxPoint x="160" y="234.70999999999998" as="targetPoint" />
          </mxGeometry>
        </mxCell>
        <mxCell id="vkkkhBL2sCb2KMRIvEti-47" value="" style="endArrow=classic;html=1;rounded=0;strokeWidth=4;entryX=0;entryY=0.5;entryDx=0;entryDy=0;exitX=1;exitY=0.5;exitDx=0;exitDy=0;" edge="1" parent="1" source="vkkkhBL2sCb2KMRIvEti-33" target="vkkkhBL2sCb2KMRIvEti-35">
          <mxGeometry width="50" height="50" relative="1" as="geometry">
            <mxPoint x="350" y="230" as="sourcePoint" />
            <mxPoint x="530" y="230.29000000000002" as="targetPoint" />
          </mxGeometry>
        </mxCell>
        <mxCell id="vkkkhBL2sCb2KMRIvEti-48" value="" style="endArrow=classic;html=1;rounded=0;strokeWidth=4;entryX=0;entryY=0.5;entryDx=0;entryDy=0;" edge="1" parent="1">
          <mxGeometry width="50" height="50" relative="1" as="geometry">
            <mxPoint x="240" y="129.66" as="sourcePoint" />
            <mxPoint x="530" y="129.66" as="targetPoint" />
          </mxGeometry>
        </mxCell>
        <mxCell id="vkkkhBL2sCb2KMRIvEti-49" value="" style="endArrow=none;html=1;rounded=0;strokeWidth=4;" edge="1" parent="1">
          <mxGeometry width="50" height="50" relative="1" as="geometry">
            <mxPoint x="240" y="235" as="sourcePoint" />
            <mxPoint x="240" y="130" as="targetPoint" />
          </mxGeometry>
        </mxCell>
        <mxCell id="vkkkhBL2sCb2KMRIvEti-50" value="ECC Check Bit Generator" style="rounded=0;whiteSpace=wrap;html=1;fillColor=#dae8fc;strokeColor=#6c8ebf;fontStyle=1;fontSize=14;" vertex="1" parent="1">
          <mxGeometry x="300" y="655" width="120" height="60" as="geometry" />
        </mxCell>
        <mxCell id="vkkkhBL2sCb2KMRIvEti-51" value="Memory Data Array" style="rounded=0;whiteSpace=wrap;html=1;fillColor=#ffe6cc;strokeColor=#d79b00;fontSize=14;fontStyle=1" vertex="1" parent="1">
          <mxGeometry x="530" y="520" width="120" height="120" as="geometry" />
        </mxCell>
        <mxCell id="vkkkhBL2sCb2KMRIvEti-52" value="ECC Check Bit Array" style="rounded=0;whiteSpace=wrap;html=1;fillColor=#d5e8d4;strokeColor=#82b366;fontSize=14;fontStyle=1" vertex="1" parent="1">
          <mxGeometry x="530" y="655" width="120" height="60" as="geometry" />
        </mxCell>
        <mxCell id="vkkkhBL2sCb2KMRIvEti-53" value="&lt;span&gt;&lt;font style=&quot;font-size: 17px;&quot;&gt;128 bits&lt;/font&gt;&lt;/span&gt;" style="text;html=1;align=center;verticalAlign=middle;whiteSpace=wrap;rounded=0;fontStyle=0" vertex="1" parent="1">
          <mxGeometry x="420" y="579" width="90" height="30" as="geometry" />
        </mxCell>
        <mxCell id="vkkkhBL2sCb2KMRIvEti-54" value="&lt;span&gt;&lt;font style=&quot;font-size: 17px;&quot;&gt;8 bits&lt;/font&gt;&lt;/span&gt;" style="text;html=1;align=center;verticalAlign=middle;whiteSpace=wrap;rounded=0;fontStyle=0" vertex="1" parent="1">
          <mxGeometry x="430" y="648" width="70" height="30" as="geometry" />
        </mxCell>
        <mxCell id="vkkkhBL2sCb2KMRIvEti-55" value="&lt;span&gt;&lt;font style=&quot;font-size: 17px;&quot;&gt;256 bits&lt;/font&gt;&lt;/span&gt;" style="text;html=1;align=center;verticalAlign=middle;whiteSpace=wrap;rounded=0;fontStyle=0" vertex="1" parent="1">
          <mxGeometry x="120" y="655" width="70" height="30" as="geometry" />
        </mxCell>
        <mxCell id="vkkkhBL2sCb2KMRIvEti-56" value="" style="endArrow=classic;html=1;rounded=0;strokeWidth=4;entryX=0;entryY=0.5;entryDx=0;entryDy=0;" edge="1" parent="1" target="vkkkhBL2sCb2KMRIvEti-50">
          <mxGeometry width="50" height="50" relative="1" as="geometry">
            <mxPoint x="120" y="684.71" as="sourcePoint" />
            <mxPoint x="160" y="684.71" as="targetPoint" />
          </mxGeometry>
        </mxCell>
        <mxCell id="vkkkhBL2sCb2KMRIvEti-57" value="" style="endArrow=classic;html=1;rounded=0;strokeWidth=4;entryX=0;entryY=0.5;entryDx=0;entryDy=0;exitX=1;exitY=0.5;exitDx=0;exitDy=0;" edge="1" parent="1">
          <mxGeometry width="50" height="50" relative="1" as="geometry">
            <mxPoint x="420" y="674" as="sourcePoint" />
            <mxPoint x="530" y="674" as="targetPoint" />
          </mxGeometry>
        </mxCell>
        <mxCell id="vkkkhBL2sCb2KMRIvEti-58" value="" style="endArrow=classic;html=1;rounded=0;strokeWidth=4;entryX=0;entryY=0.5;entryDx=0;entryDy=0;" edge="1" parent="1">
          <mxGeometry width="50" height="50" relative="1" as="geometry">
            <mxPoint x="240" y="605" as="sourcePoint" />
            <mxPoint x="530" y="605" as="targetPoint" />
          </mxGeometry>
        </mxCell>
        <mxCell id="vkkkhBL2sCb2KMRIvEti-59" value="" style="endArrow=none;html=1;rounded=0;strokeWidth=4;" edge="1" parent="1">
          <mxGeometry width="50" height="50" relative="1" as="geometry">
            <mxPoint x="240" y="685" as="sourcePoint" />
            <mxPoint x="240" y="550" as="targetPoint" />
          </mxGeometry>
        </mxCell>
        <mxCell id="vkkkhBL2sCb2KMRIvEti-60" value="&lt;span&gt;&lt;font style=&quot;font-size: 17px;&quot;&gt;8 bits&lt;/font&gt;&lt;/span&gt;" style="text;html=1;align=center;verticalAlign=middle;whiteSpace=wrap;rounded=0;fontStyle=0" vertex="1" parent="1">
          <mxGeometry x="430" y="680" width="70" height="30" as="geometry" />
        </mxCell>
        <mxCell id="vkkkhBL2sCb2KMRIvEti-61" value="" style="endArrow=classic;html=1;rounded=0;strokeWidth=4;entryX=0;entryY=0.5;entryDx=0;entryDy=0;exitX=1;exitY=0.5;exitDx=0;exitDy=0;" edge="1" parent="1">
          <mxGeometry width="50" height="50" relative="1" as="geometry">
            <mxPoint x="420" y="706" as="sourcePoint" />
            <mxPoint x="530" y="706" as="targetPoint" />
          </mxGeometry>
        </mxCell>
        <mxCell id="vkkkhBL2sCb2KMRIvEti-62" value="" style="endArrow=classic;html=1;rounded=0;strokeWidth=4;entryX=0;entryY=0.5;entryDx=0;entryDy=0;" edge="1" parent="1">
          <mxGeometry width="50" height="50" relative="1" as="geometry">
            <mxPoint x="240" y="553" as="sourcePoint" />
            <mxPoint x="530" y="553" as="targetPoint" />
          </mxGeometry>
        </mxCell>
        <mxCell id="vkkkhBL2sCb2KMRIvEti-63" value="&lt;span&gt;&lt;font style=&quot;font-size: 17px;&quot;&gt;128 bits&lt;/font&gt;&lt;/span&gt;" style="text;html=1;align=center;verticalAlign=middle;whiteSpace=wrap;rounded=0;fontStyle=0" vertex="1" parent="1">
          <mxGeometry x="420" y="526" width="90" height="30" as="geometry" />
        </mxCell>
        <mxCell id="vkkkhBL2sCb2KMRIvEti-64" value="ECC Checker" style="rounded=0;whiteSpace=wrap;html=1;fillColor=#dae8fc;strokeColor=#6c8ebf;fontStyle=1;fontSize=14;" vertex="1" parent="1">
          <mxGeometry x="240" y="320" width="120" height="40" as="geometry" />
        </mxCell>
        <mxCell id="vkkkhBL2sCb2KMRIvEti-65" value="" style="endArrow=classic;html=1;rounded=0;strokeWidth=4;entryX=0;entryY=0.5;entryDx=0;entryDy=0;" edge="1" parent="1">
          <mxGeometry width="50" height="50" relative="1" as="geometry">
            <mxPoint x="400" y="350" as="sourcePoint" />
            <mxPoint x="360" y="350" as="targetPoint" />
          </mxGeometry>
        </mxCell>
        <mxCell id="vkkkhBL2sCb2KMRIvEti-66" value="" style="endArrow=none;html=1;rounded=0;strokeWidth=4;" edge="1" parent="1">
          <mxGeometry width="50" height="50" relative="1" as="geometry">
            <mxPoint x="400" y="410" as="sourcePoint" />
            <mxPoint x="400" y="350" as="targetPoint" />
          </mxGeometry>
        </mxCell>
        <mxCell id="vkkkhBL2sCb2KMRIvEti-67" value="" style="endArrow=none;html=1;rounded=0;strokeWidth=4;" edge="1" parent="1">
          <mxGeometry width="50" height="50" relative="1" as="geometry">
            <mxPoint x="488" y="410" as="sourcePoint" />
            <mxPoint x="398" y="410.31" as="targetPoint" />
          </mxGeometry>
        </mxCell>
        <mxCell id="vkkkhBL2sCb2KMRIvEti-68" value="" style="endArrow=none;html=1;rounded=0;strokeWidth=4;" edge="1" parent="1">
          <mxGeometry width="50" height="50" relative="1" as="geometry">
            <mxPoint x="530" y="446" as="sourcePoint" />
            <mxPoint x="490" y="446" as="targetPoint" />
          </mxGeometry>
        </mxCell>
        <mxCell id="vkkkhBL2sCb2KMRIvEti-69" value="" style="endArrow=none;html=1;rounded=0;strokeWidth=4;" edge="1" parent="1">
          <mxGeometry width="50" height="50" relative="1" as="geometry">
            <mxPoint x="490" y="448" as="sourcePoint" />
            <mxPoint x="490" y="408" as="targetPoint" />
          </mxGeometry>
        </mxCell>
      </root>
    </mxGraphModel>
  </diagram>
</mxfile>
